<?xml version="1.0" standalone="no"?>
<!DOCTYPE svg PUBLIC "-//W3C//DTD SVG 1.1//EN" "http://www.w3.org/Graphics/SVG/1.1/DTD/svg11.dtd" >
<svg xmlns="http://www.w3.org/2000/svg">
<metadata></metadata>
<defs>
<font id="conqueror_sansregular" horiz-adv-x="1024" >
<font-face units-per-em="2048" ascent="1536" descent="-512" />
<missing-glyph horiz-adv-x="563" />
<glyph horiz-adv-x="0" />
<glyph horiz-adv-x="682" />
<glyph unicode=" "  horiz-adv-x="563" />
<glyph unicode="&#x09;" horiz-adv-x="563" />
<glyph unicode="&#xa0;" horiz-adv-x="563" />
<glyph unicode="!" horiz-adv-x="460" d="M102 117q0 53 38 91t91 38q52 0 89.5 -38t37.5 -91t-37 -90t-90 -37t-91 37.5t-38 89.5zM119 1434h225l-49 -1035h-123z" />
<glyph unicode="&#x22;" horiz-adv-x="917" d="M102 967l162 387q17 43 48 73.5t69 30.5q41 0 73.5 -26t32.5 -78q0 -55 -34 -97l-271 -344zM430 967l162 387q17 43 48 73.5t69 30.5q41 0 73.5 -26t32.5 -78q0 -54 -35 -97l-270 -344z" />
<glyph unicode="#" horiz-adv-x="1470" d="M102 453v133h304l86 262h-287v133h332l159 453h150l-162 -453h293l153 453h148l-160 -453h250v-133h-295l-90 -262h299v-133h-342l-149 -453h-148l152 453h-293l-148 -453h-147l153 453h-258zM549 586h287l92 262h-289z" />
<glyph unicode="$" horiz-adv-x="1126" d="M102 145l99 158q119 -91 241 -129l72 494q-43 19 -73.5 34t-69.5 37.5t-66 44t-54.5 51.5t-44.5 62.5t-27.5 74.5t-10.5 89q0 84 24.5 153.5t76.5 126t144 89t218 34.5l18 127h137l-20 -139q119 -19 231 -78l-79 -168q-104 43 -181 58l-65 -447q62 -27 104.5 -49 t93.5 -59t81.5 -77t51.5 -98.5t21 -127.5q0 -88 -29 -164.5t-85.5 -138t-149.5 -97.5t-211 -37l-21 -141h-137l23 158q-140 35 -312 159zM354 1087q0 -72 49 -121t142 -92l59 406q-69 0 -123 -17.5t-90.5 -62.5t-36.5 -113zM575 154q118 0 187 57.5t69 165.5q0 78 -49 130.5 t-141 100.5z" />
<glyph unicode="%" horiz-adv-x="1517" d="M102 0l1147 1434h166l-1147 -1434h-166zM139 1128q0 154 77.5 235t209.5 81q129 0 211 -82t82 -234q0 -133 -85 -223t-208 -90q-126 0 -206.5 89t-80.5 224zM274 1128q0 -190 152 -190q81 0 121.5 53.5t40.5 136.5q0 88 -40.5 140.5t-121.5 52.5q-152 0 -152 -193z M799 303q0 154 77 234.5t209 80.5q129 0 211 -81.5t82 -233.5q0 -133 -85 -223t-208 -90q-126 0 -206 89t-80 224zM934 303q0 -190 151 -190q81 0 121.5 53.5t40.5 136.5q0 88 -40.5 140.5t-121.5 52.5q-82 0 -116.5 -51t-34.5 -142z" />
<glyph unicode="&#x26;" horiz-adv-x="1447" d="M102 410q0 160 72.5 261t245.5 177q-56 77 -90.5 157t-34.5 146q0 139 99 226t268 87q79 0 173 -25t149 -50l54 -25l-88 -162q-83 40 -175 60t-157 20q-61 0 -95 -32.5t-34 -75.5q0 -39 24 -89.5t47.5 -84t70.5 -93.5l381 -483q98 201 98 489h184q0 -399 -159 -645 l211 -268h-273l-67 88l-17 18q-175 -137 -418 -137q-198 0 -333.5 124t-135.5 317zM299 410q0 -85 48.5 -145.5t121.5 -87.5t162 -27q142 0 252 98l-355 461q-112 -42 -170.5 -124.5t-58.5 -174.5z" />
<glyph unicode="'" horiz-adv-x="589" d="M102 967l162 387q17 43 48 73.5t69 30.5q41 0 73.5 -26t32.5 -78q0 -55 -34 -97l-271 -344z" />
<glyph unicode="(" horiz-adv-x="782" d="M102 573q0 305 136 534t426 409l77 -125q-95 -79 -158.5 -140t-124 -137.5t-95.5 -153t-55.5 -174.5t-20.5 -213t21 -213t55.5 -174t95 -153t124 -137.5t158.5 -139.5l-77 -125q-290 180 -426 408.5t-136 533.5z" />
<glyph unicode=")" horiz-adv-x="782" d="M41 -244q95 79 158.5 139.5t124.5 137.5t95.5 153t55.5 174t21 213t-21 213t-55.5 174.5t-95.5 153t-124.5 137.5t-158.5 140l78 125q289 -179 425 -408.5t136 -534.5t-135.5 -533.5t-425.5 -408.5z" />
<glyph unicode="*" horiz-adv-x="868" d="M82 1126l43 140l248 -88l-13 256h144l-10 -256l249 88l43 -140l-251 -69l163 -209l-116 -86l-146 223l-149 -223l-117 86l162 209z" />
<glyph unicode="+" horiz-adv-x="1310" d="M102 530v144h482v481h143v-481h481v-144h-481v-481h-143v481h-482z" />
<glyph unicode="," horiz-adv-x="466" d="M82 -281l145 271q-50 5 -84 41t-34 86q0 51 38.5 90t90.5 39q63 0 105 -44.5t42 -121.5q0 -120 -223 -406z" />
<glyph unicode="-" horiz-adv-x="593" d="M61 449v143h471v-143h-471z" />
<glyph unicode="." horiz-adv-x="460" d="M102 117q0 53 38 91t91 38q52 0 89.5 -38t37.5 -91t-37 -90t-90 -37t-91 37.5t-38 89.5z" />
<glyph unicode="/" horiz-adv-x="1017" d="M0 -328l870 1807h148l-871 -1807h-147z" />
<glyph unicode="0" d="M49 717q0 129 15 238.5t49.5 204.5t87.5 161.5t132 104.5t179 38t179 -38t132 -104.5t87.5 -161.5t49.5 -204.5t15 -238.5t-15 -238.5t-49.5 -205t-87.5 -162t-132 -104.5t-179 -38t-179 38t-132 104.5t-87.5 162t-49.5 205t-15 238.5zM268 717q0 -307 51.5 -435 t192.5 -128t192.5 128t51.5 435t-51.5 435t-192.5 128t-192.5 -128t-51.5 -435z" />
<glyph unicode="1" d="M170 1186l379 248h98v-1250h205v-184h-614v184h204v994l-211 -111z" />
<glyph unicode="2" d="M88 1268q95 97 201 146.5t237 49.5q102 0 182.5 -30t128.5 -81.5t72.5 -116t24.5 -136.5q0 -125 -53.5 -238.5t-145.5 -240.5l-305 -418h488v-203h-799v86l442 606q46 61 74.5 106.5t55 118t26.5 140.5q0 120 -63 169.5t-179 49.5q-69 0 -127 -36t-139 -112z" />
<glyph unicode="3" d="M74 92l92 162q81 -51 140 -75.5t120 -24.5q52 0 101.5 14.5t95.5 44t74 85t28 128.5q0 98 -68.5 147.5t-169.5 49.5q-46 0 -102 -23l-76 168q98 45 163.5 81.5t120.5 79.5t81 91t26 104q0 72 -42.5 114t-122.5 42q-97 0 -167 -40.5t-130 -111.5l-121 140 q89 91 194.5 143.5t251.5 52.5q90 0 158.5 -30t105.5 -78t54.5 -99.5t17.5 -103.5q0 -128 -74 -227.5t-204 -157.5q153 -20 240 -113t87 -229q0 -92 -33.5 -174.5t-95.5 -145.5t-158.5 -100t-214.5 -37q-189 0 -372 123z" />
<glyph unicode="4" d="M29 365v102l690 995h96v-923h178v-174h-178v-365h-205v365h-581zM270 539h340v491z" />
<glyph unicode="5" d="M80 82l88 162q152 -90 264 -90q53 0 104 15.5t98 48t76 92.5t29 139q0 132 -72.5 199t-203.5 67q-99 0 -170 -41l-100 90l126 670h611v-185h-461l-66 -360q66 8 107 8q180 0 307 -120.5t127 -317.5q0 -66 -13 -129.5t-47.5 -130.5t-87.5 -116.5t-141.5 -81.5t-201.5 -32 q-202 0 -373 113z" />
<glyph unicode="6" d="M78 633q0 160 16 286t53.5 230t96.5 172.5t146 105.5t202 37q190 0 315 -104l-100 -156q-95 76 -221 76q-67 0 -115.5 -19.5t-89 -69t-64 -142t-30.5 -230.5q15 10 41 24.5t95.5 39t125.5 24.5q100 0 177 -35.5t124.5 -98.5t71.5 -144.5t24 -177.5q0 -219 -122.5 -350.5 t-305.5 -131.5q-103 0 -179.5 30.5t-126 85.5t-80 139.5t-42.5 183t-12 225.5zM285 582q0 -80 4 -137.5t18 -116t39 -94t67.5 -58t102.5 -22.5q111 0 176.5 79.5t65.5 215.5q0 135 -68.5 211.5t-175.5 76.5q-42 0 -112.5 -28t-116.5 -62v-65z" />
<glyph unicode="7" d="M84 1249v185h856v-82l-553 -1352h-203l510 1249h-610z" />
<glyph unicode="8" d="M63 399q0 120 57 209.5t154 145.5q-81 40 -126.5 124.5t-45.5 180.5q0 189 109.5 297t300.5 108t300.5 -108t109.5 -297q0 -96 -45.5 -180.5t-126.5 -124.5q97 -56 154 -145.5t57 -209.5q0 -107 -37.5 -191t-101 -135t-142.5 -77.5t-168 -26.5t-168 26.5t-142.5 77.5 t-101 135t-37.5 191zM268 399q0 -245 244 -245t244 245q0 133 -67 191.5t-177 58.5t-177 -58.5t-67 -191.5zM307 1061q0 -111 57.5 -169t147.5 -58t147.5 58t57.5 169q0 219 -205 219t-205 -219z" />
<glyph unicode="9" d="M76 983q0 220 118.5 350.5t301.5 130.5q106 0 185 -33t129 -91t81 -148t43 -193.5t12 -238.5q0 -191 -26.5 -333t-85 -247t-157 -158t-237.5 -53q-188 0 -317 105l98 155q96 -75 223 -75q53 0 94 11.5t78 42t62 81.5t41 132.5t20 192.5q-15 -10 -40.5 -24.5t-94.5 -39 t-125 -24.5q-131 0 -224 62.5t-136 164t-43 230.5zM264 985q0 -135 71 -212t177 -77q42 0 111 28t116 62q0 78 -2.5 131t-10 115.5t-23.5 102.5t-41.5 75.5t-66.5 52.5t-95 17q-110 0 -173 -79t-63 -216z" />
<glyph unicode=":" horiz-adv-x="460" d="M102 117q0 53 38 91t91 38q52 0 89.5 -38t37.5 -91t-37 -90t-90 -37t-91 37.5t-38 89.5zM102 690q0 52 38 90.5t91 38.5q52 0 89.5 -38t37.5 -91q0 -52 -37 -89.5t-90 -37.5t-91 37.5t-38 89.5z" />
<glyph unicode=";" horiz-adv-x="507" d="M102 -281l146 271q-50 5 -84.5 41t-34.5 86q0 51 38.5 90t90.5 39q63 0 105.5 -44.5t42.5 -121.5q0 -119 -224 -406zM129 690q0 52 38.5 90.5t90.5 38.5t89.5 -38t37.5 -91q0 -52 -37.5 -89.5t-89.5 -37.5q-53 0 -91 37.5t-38 89.5z" />
<glyph unicode="&#x3c;" horiz-adv-x="1062" d="M61 606l900 518v-166l-611 -352l611 -352v-166z" />
<glyph unicode="=" horiz-adv-x="1310" d="M102 334v143h1106v-143h-1106zM102 686v143h1106v-143h-1106z" />
<glyph unicode="&#x3e;" horiz-adv-x="1062" d="M102 88v166l611 352l-611 352v166l899 -518z" />
<glyph unicode="?" horiz-adv-x="899" d="M102 1358q175 76 324 76q93 0 163.5 -26t108.5 -62.5t61.5 -85.5t30.5 -86t7 -72q0 -61 -17 -112t-44.5 -85.5t-63 -66t-72.5 -55t-72.5 -52.5t-63 -58t-44.5 -71.5t-17 -93.5q0 -48 15 -109h-123q-49 85 -49 170q0 57 20 106.5t52.5 85.5t71.5 68.5t78 62t71.5 59 t52.5 67t20 78.5q0 42 -17.5 73.5t-46 48t-58.5 24t-60 7.5q-124 0 -262 -63zM227 117q0 53 38.5 91t90.5 38t89.5 -38t37.5 -91t-37.5 -90t-89.5 -37q-53 0 -91 37.5t-38 89.5z" />
<glyph unicode="@" horiz-adv-x="1687" d="M92 289q0 141 48 268t131.5 223t193.5 167t238 108t260 37q294 0 463 -138.5t169 -375.5q0 -125 -37.5 -226t-97.5 -165.5t-139.5 -107.5t-159 -61t-160.5 -18v324q-39 -67 -76.5 -119t-88.5 -104.5t-111.5 -81.5t-124.5 -29q-87 0 -144 64t-57 212q0 104 53 205t148 182 t242 131t319 50v-662q67 10 134 70.5t111 151t44 179.5q0 81 -27 146t-72.5 107t-108.5 70t-132 40t-147 12q-107 0 -209.5 -24t-196.5 -77t-165 -128.5t-113.5 -186t-42.5 -243.5q0 -116 29 -207.5t76.5 -149.5t113.5 -96t135 -53.5t145 -15.5q124 0 271.5 34.5t253.5 96.5 l45 -138q-128 -65 -283.5 -101t-280.5 -36q-310 0 -479.5 179.5t-169.5 486.5zM563 266q0 -72 18 -94t58 -22q68 0 152.5 85.5t144.5 209t63 223.5q-77 0 -148 -29t-122 -74.5t-89.5 -99.5t-57.5 -106t-19 -93z" />
<glyph unicode="A" horiz-adv-x="1296" d="M31 0l493 1434h248l494 -1434h-215l-133 385h-558l-133 -385h-196zM424 569h430l-213 625z" />
<glyph unicode="B" horiz-adv-x="1157" d="M184 0v1434h430q56 0 110 -11t106.5 -37t91.5 -65t63.5 -99.5t24.5 -134.5q0 -122 -63 -210.5t-183 -126.5q134 -29 212.5 -117t78.5 -230q0 -83 -27 -152t-71 -114.5t-102 -77t-118.5 -45.5t-122.5 -14h-430zM389 184h186q130 0 202.5 56.5t72.5 175.5t-72.5 176 t-202.5 57h-186v-465zM389 834h170q124 0 184 49.5t60 158.5q0 108 -60 157.5t-184 49.5h-170v-415z" />
<glyph unicode="C" horiz-adv-x="1353" d="M82 717q0 161 46 296t134 236t226 158t313 57q259 0 456 -88l-71 -178q-112 42 -196 62t-189 20q-218 0 -356 -152.5t-138 -410.5q0 -270 136.5 -416.5t357.5 -146.5q105 0 208 44.5t216 120.5l88 -157q-10 -8 -28 -21t-74 -46t-113.5 -58.5t-139 -46.5t-157.5 -21 q-176 0 -313 54.5t-225.5 153.5t-134.5 235.5t-46 304.5z" />
<glyph unicode="D" horiz-adv-x="1363" d="M184 0v1434h437q142 0 256 -42t188.5 -111.5t124.5 -163.5t71 -193.5t21 -206.5t-21 -206.5t-71 -193.5t-124.5 -163.5t-188.5 -111.5t-256 -42h-437zM389 184h201q247 0 357 135t110 398t-110 397.5t-357 134.5h-201v-1065z" />
<glyph unicode="E" horiz-adv-x="1021" d="M184 0v1434h734v-185h-529v-415h479v-185h-479v-465h551v-184h-756z" />
<glyph unicode="F" horiz-adv-x="940" d="M184 0v1434h736v-185h-531v-422h479v-184h-479v-643h-205z" />
<glyph unicode="G" horiz-adv-x="1374" d="M82 717q0 161 46 296t134 236t226 158t313 57q259 0 456 -88l-71 -178q-112 42 -196 62t-189 20q-218 0 -356 -152.5t-138 -410.5q0 -270 136.5 -416.5t357.5 -146.5q140 0 307 92v444h205v-528q-10 -8 -28 -21t-74 -46t-113.5 -58.5t-139 -46.5t-157.5 -21 q-176 0 -313 54.5t-225.5 153.5t-134.5 235.5t-46 304.5z" />
<glyph unicode="H" horiz-adv-x="1495" d="M184 0v1434h205v-600h717v600h205v-1434h-205v649h-717v-649h-205z" />
<glyph unicode="I" horiz-adv-x="573" d="M184 0v1434h205v-1434h-205z" />
<glyph unicode="J" horiz-adv-x="573" d="M-113 -215q51 0 87.5 4.5t79 23t68.5 51t44 92.5t18 144v1334h205v-1334q0 -250 -121.5 -374.5t-380.5 -124.5v184z" />
<glyph unicode="K" horiz-adv-x="1275" d="M184 0v1434h205v-600h146l423 600h246l-485 -684l498 -750h-259l-411 649h-158v-649h-205z" />
<glyph unicode="L" horiz-adv-x="1048" d="M184 0v1434h205v-1250h619v-184h-824z" />
<glyph unicode="M" horiz-adv-x="1871" d="M164 0l76 1434h309l385 -1098l418 1098h295l61 -1434h-207l-47 1208l-444 -1208h-170l-428 1208l-62 -1208h-186z" />
<glyph unicode="N" horiz-adv-x="1536" d="M184 0v1434h144l839 -1047v1047h185v-1434h-144l-839 1044v-1044h-185z" />
<glyph unicode="O" horiz-adv-x="1544" d="M82 717q0 152 46.5 287t132.5 237.5t218 162.5t293 60t293 -60t218 -162.5t132.5 -237.5t46.5 -287q0 -121 -29 -232.5t-87.5 -205t-140 -163t-193 -108.5t-240.5 -39t-240.5 39t-193 108.5t-140 163t-87.5 205t-29 232.5zM287 717q0 -260 135.5 -411.5t349.5 -151.5 t349.5 151.5t135.5 411.5t-135.5 411.5t-349.5 151.5t-349.5 -151.5t-135.5 -411.5z" />
<glyph unicode="P" horiz-adv-x="1105" d="M184 0v1434h383q93 0 176.5 -26.5t151.5 -78.5t108.5 -137.5t40.5 -194.5t-40.5 -194.5t-108.5 -137t-151.5 -78t-176.5 -26.5h-178v-561h-205zM389 745h141q147 0 222 64t75 188t-75 188t-222 64h-141v-504z" />
<glyph unicode="Q" horiz-adv-x="1583" d="M102 717q0 159 46.5 295.5t133 237t218.5 157.5t293 57q214 0 372.5 -99t238 -266.5t79.5 -381.5q0 -250 -110.5 -437t-311.5 -264l538 -204l-71 -172l-932 354q-234 59 -364 255t-130 468zM307 717q0 -272 134 -417.5t352 -145.5t351.5 145.5t133.5 417.5t-133.5 417.5 t-351.5 145.5t-352 -145.5t-134 -417.5z" />
<glyph unicode="R" horiz-adv-x="1208" d="M164 0v1434h403q93 0 176.5 -26.5t151.5 -78.5t108.5 -137.5t40.5 -194.5q0 -149 -72 -249.5t-192 -147.5l346 -600h-235l-326 561h-196v-561h-205zM369 745h161q147 0 222 64t75 188t-75 188t-222 64h-161v-504z" />
<glyph unicode="S" horiz-adv-x="1105" d="M61 145l99 158q72 -53 182.5 -101t208.5 -48q122 0 201 58.5t79 164.5q0 63 -39 112.5t-101 83.5t-137 65t-150 67.5t-137 81t-101 114.5t-39 160q0 85 28.5 156t87 127.5t157 88t229.5 31.5q90 0 193.5 -26.5t174.5 -63.5l-79 -168q-60 27 -155.5 50.5t-178.5 23.5 q-69 0 -123 -17.5t-90.5 -62.5t-36.5 -113q0 -42 24.5 -77.5t65.5 -62t94 -51t112 -49.5t118 -52.5t112 -64t94 -80.5t65.5 -106.5t24.5 -137.5q0 -87 -36 -166t-101 -139.5t-165.5 -96t-221.5 -35.5q-120 0 -243 55t-216 121z" />
<glyph unicode="T" horiz-adv-x="1177" d="M31 1249v185h1116v-185h-457v-1249h-203v1249h-456z" />
<glyph unicode="U" horiz-adv-x="1464" d="M184 483v951h205v-951q0 -149 82.5 -239t261.5 -90t260.5 90t81.5 239v951h205v-951q0 -249 -146.5 -381.5t-400.5 -132.5t-401.5 132.5t-147.5 381.5z" />
<glyph unicode="V" horiz-adv-x="1372" d="M31 1434h229l430 -1072l440 1072h211l-587 -1434h-136z" />
<glyph unicode="W" horiz-adv-x="1888" d="M31 1434h215l299 -998l346 998h123l350 -994l301 994h193l-435 -1434h-123l-356 1020l-356 -1020h-123z" />
<glyph unicode="X" horiz-adv-x="1245" d="M51 1434h242l336 -535l336 535h217l-445 -707l457 -727h-244l-336 532l-333 -532h-218l443 707z" />
<glyph unicode="Y" horiz-adv-x="1224" d="M31 1434h227l363 -697l366 697h207l-481 -916v-518h-203v522z" />
<glyph unicode="Z" horiz-adv-x="1222" d="M82 0v72l737 1177h-684v185h1006v-74l-738 -1176h721v-184h-1042z" />
<glyph unicode="[" horiz-adv-x="514" d="M102 -369v1885h371v-144h-207v-1597h207v-144h-371z" />
<glyph unicode="\" horiz-adv-x="1017" d="M0 1479h147l871 -1807h-148z" />
<glyph unicode="]" horiz-adv-x="514" d="M41 -225h207v1597h-207v144h371v-1885h-371v144z" />
<glyph unicode="^" horiz-adv-x="929" d="M51 1124l375 392h78l375 -392h-168l-246 256l-246 -256h-168z" />
<glyph unicode="_" horiz-adv-x="1089" d="M0 -53h1090v-144h-1090v144z" />
<glyph unicode="`" horiz-adv-x="606" d="M102 1446h201l201 -332h-133z" />
<glyph unicode="a" horiz-adv-x="993" d="M72 236q0 78 29 137.5t80 99.5t129.5 67t169 40.5t206.5 19.5q0 39 -3.5 70.5t-9 54.5t-16 41t-19.5 29.5t-25.5 19.5t-27.5 12t-33 6t-34 2.5t-37 0.5q-64 0 -152.5 -22t-160.5 -52l-53 158q76 30 191.5 54.5t215.5 24.5q58 0 106.5 -10.5t94.5 -38.5t77.5 -73 t50.5 -118.5t19 -170.5v-588h-184v143q-176 -166 -338 -166q-123 0 -199.5 66t-76.5 193zM256 250q0 -115 139 -115q59 0 137.5 49.5t153.5 120.5v152q-98 -4 -170.5 -15t-134 -34t-93.5 -62.5t-32 -95.5z" />
<glyph unicode="b" horiz-adv-x="1153" d="M143 109v1325h185v-545q147 110 305 110q87 0 166.5 -35.5t140 -97.5t96 -153t35.5 -197q0 -135 -42.5 -242t-116 -172t-166 -99t-197.5 -34q-198 0 -406 140zM328 197q36 -27 93.5 -45.5t106.5 -18.5q36 0 62.5 1.5t65.5 10t68 23t60.5 42.5t52 67t33.5 98.5t13 134.5 q0 72 -22.5 130.5t-56.5 93.5t-76 58.5t-77.5 32.5t-64.5 9q-131 0 -258 -111v-526z" />
<glyph unicode="c" horiz-adv-x="1003" d="M82 483q0 104 29.5 191t79 146t115 100t135 60t141.5 19q149 0 329 -47l-43 -157q-159 43 -266 43q-321 0 -321 -355q0 -173 83.5 -258.5t235.5 -85.5q41 0 93.5 20.5t85 39.5t91.5 57l82 -135q-217 -152 -389 -152q-77 0 -145.5 17.5t-130.5 56.5t-107 97.5t-71.5 146 t-26.5 196.5z" />
<glyph unicode="d" horiz-adv-x="1169" d="M82 485q0 103 29 190.5t76.5 146t109 99.5t126 59.5t128.5 18.5q149 0 289 -77v512h186v-1434h-186v137q-64 -69 -149 -118.5t-179 -49.5q-66 0 -126.5 17.5t-116.5 57.5t-97 98.5t-65.5 146.5t-24.5 196zM270 485q0 -94 22 -162t62 -107t89.5 -57t111.5 -18 q142 0 285 164v443q-66 46 -123.5 67t-136.5 21q-40 0 -78.5 -8.5t-81.5 -32.5t-75.5 -61.5t-53.5 -101.5t-21 -147z" />
<glyph unicode="e" horiz-adv-x="1007" d="M82 463q0 128 39 233t103 169.5t142 99t160 34.5q416 0 416 -522h-672q2 -96 25.5 -163t67 -104.5t99.5 -54t132 -16.5q59 0 136 36t140 81l76 -133q-45 -32 -73.5 -50.5t-82 -47t-110.5 -42.5t-117 -14q-95 0 -180 30t-153 88.5t-108 155.5t-40 220zM285 610h479 q-7 111 -58 168.5t-174 57.5q-90 0 -150 -52.5t-97 -173.5z" />
<glyph unicode="f" horiz-adv-x="616" d="M41 803v164h123v192q0 70 15.5 124.5t41 88t61 55t71 29.5t75.5 8q127 0 291 -47l-51 -151q-148 53 -228 53q-45 0 -67.5 -24.5t-22.5 -80.5v-247h240v-164h-240v-803h-186v803h-123z" />
<glyph unicode="g" horiz-adv-x="1034" d="M51 -172q0 142 256 264l-190 27v125q128 32 235 69q-132 46 -191 120.5t-59 199.5q0 166 111.5 266t288.5 100q50 0 110.5 -14.5t98.5 -36.5l272 103v-170l-145 -56q33 -41 49 -83.5t16 -108.5q0 -61 -15.5 -112.5t-40.5 -89.5t-66.5 -70t-82 -53.5t-99.5 -41 t-107.5 -31.5t-116.5 -26v-12q282 -10 421.5 -91t139.5 -202q0 -97 -65 -174t-174.5 -118.5t-241.5 -41.5q-111 0 -192.5 22t-126 60.5t-65 82t-20.5 93.5zM221 -168q0 -54 61.5 -86.5t172.5 -32.5q144 0 223.5 47.5t79.5 126.5q0 125 -256 162q-85 -29 -144.5 -61.5 t-87 -62t-38.5 -51.5t-11 -42zM287 633q0 -103 56 -165t159 -62t160 62.5t57 164.5q0 92 -58 155.5t-159 63.5t-158 -63t-57 -156z" />
<glyph unicode="h" horiz-adv-x="1153" d="M143 0v1434h185v-586q151 147 319 147q75 0 142 -25.5t121.5 -76.5t87 -136.5t32.5 -195.5v-561h-186v561q0 142 -65 205t-169 63q-67 0 -153 -38t-129 -91v-700h-185z" />
<glyph unicode="i" horiz-adv-x="471" d="M115 1268q0 51 35 87t83 36q51 0 86 -36t35 -87q0 -48 -35 -82.5t-86 -34.5q-47 0 -82.5 35t-35.5 82zM143 0v967h185v-967h-185z" />
<glyph unicode="j" horiz-adv-x="471" d="M-84 -236q61 0 106 22t71 60t38 84t12 101v936h185v-936q0 -97 -25.5 -173.5t-66 -123.5t-95.5 -78t-110.5 -43t-114.5 -12v163zM115 1268q0 51 35 87t83 36q51 0 86 -36t35 -87q0 -48 -35 -82.5t-86 -34.5q-47 0 -82.5 35t-35.5 82z" />
<glyph unicode="k" horiz-adv-x="993" d="M143 0v1434h185v-914l415 447h220l-383 -398l370 -569h-219l-285 432l-118 -125v-307h-185z" />
<glyph unicode="l" horiz-adv-x="471" d="M143 0v1434h185v-1434h-185z" />
<glyph unicode="m" horiz-adv-x="1685" d="M143 0v967h185v-123q40 57 111 106t159 49q87 0 162.5 -42.5t126.5 -116.5q24 23 37 35t50 39.5t68 42.5t78 28.5t94 13.5q157 0 253 -109.5t96 -305.5v-584h-187v584q0 75 -16 125.5t-46 75t-62.5 33.5t-77.5 9q-54 0 -126.5 -45t-101.5 -92v-690h-186v584 q0 75 -16 125.5t-46.5 75t-63 33.5t-77.5 9q-68 0 -132 -42t-97 -105v-680h-185z" />
<glyph unicode="n" horiz-adv-x="1153" d="M143 0v967h185v-119q151 147 319 147q75 0 142 -25.5t121.5 -76.5t87 -136.5t32.5 -195.5v-561h-186v561q0 142 -65 205t-169 63q-67 0 -153 -38t-129 -91v-700h-185z" />
<glyph unicode="o" horiz-adv-x="1146" d="M82 485q0 167 66.5 285t175.5 173.5t249 55.5q104 0 192.5 -33t156 -95.5t105.5 -162t38 -225.5t-38 -225t-105.5 -161.5t-156 -95t-192.5 -32.5q-215 0 -353 134t-138 382zM266 485q0 -171 83 -266.5t224 -95.5q142 0 225 94.5t83 265.5t-83.5 267t-224.5 96t-224 -95 t-83 -266z" />
<glyph unicode="p" horiz-adv-x="1144" d="M143 -399v1366h185v-125q42 52 134 104.5t193 52.5q60 0 117 -17t110 -55.5t93 -95t64 -141.5t24 -188q0 -108 -28 -198.5t-73.5 -151t-104.5 -103t-120.5 -61.5t-122.5 -19q-70 0 -150.5 19.5t-135.5 52.5v-440h-185zM328 201q39 -39 106 -59.5t131 -20.5q25 0 46.5 2 t54.5 10.5t59.5 23.5t55.5 43.5t48.5 67.5t32 99t12.5 135q0 84 -21.5 146t-52.5 95.5t-74 53.5t-76.5 25t-69.5 5q-127 0 -252 -129v-497z" />
<glyph unicode="q" horiz-adv-x="1116" d="M82 481q0 103 32.5 189.5t87 146t126 101.5t148 61.5t155.5 19.5t157 -32l185 96v-1462h-185v469q-113 -101 -264 -101q-84 0 -162.5 33t-141.5 95.5t-100.5 162t-37.5 221.5zM270 481q0 -89 22 -157.5t53 -104.5t71 -58.5t69.5 -29t55.5 -6.5q82 0 139.5 26t107.5 74 v580q-23 14 -67 22.5t-74 8.5q-57 0 -107 -8.5t-101 -33t-87 -62.5t-59 -102.5t-23 -148.5z" />
<glyph unicode="r" horiz-adv-x="747" d="M143 0v967h185v-303q40 148 122.5 223.5t231.5 111.5l45 -157q-211 -64 -305 -181t-94 -303v-358h-185z" />
<glyph unicode="s" horiz-adv-x="913" d="M82 104l78 144q168 -115 301 -115q99 0 144.5 31t45.5 94q0 45 -29 76.5t-75 50t-101.5 34.5t-111 37.5t-101.5 51t-75 83t-29 126.5q0 128 90.5 206t249.5 78q97 0 172 -15.5t166 -51.5l-57 -154q-163 62 -310 62q-65 0 -100 -34.5t-35 -82.5q0 -41 29 -69.5t75.5 -46 t102.5 -33t112 -36.5t102.5 -49.5t75.5 -79.5t29 -120q0 -78 -27 -138t-67.5 -94t-93.5 -55t-97.5 -28t-88.5 -7q-198 0 -375 135z" />
<glyph unicode="t" horiz-adv-x="739" d="M41 803v20l338 387h12v-243h301v-164h-301v-522q0 -113 80 -113q51 0 168 53l59 -145q-58 -28 -94 -43.5t-89 -29t-103 -13.5q-60 0 -102.5 24.5t-64.5 67t-31 88.5t-9 102v531h-164z" />
<glyph unicode="u" horiz-adv-x="1103" d="M123 401v566h184v-566q0 -62 11.5 -106.5t29.5 -70t48 -39.5t59.5 -18.5t70.5 -4.5q125 0 250 153v652h185v-967h-185v156q-65 -74 -148 -126.5t-171 -52.5q-162 0 -248 99t-86 325z" />
<glyph unicode="v" horiz-adv-x="1042" d="M31 967h209l297 -719l305 719h180l-424 -967h-149z" />
<glyph unicode="w" horiz-adv-x="1468" d="M31 967h194l244 -652l205 652h141l236 -645l196 645h191l-320 -967h-139l-238 629l-213 -629h-141z" />
<glyph unicode="x" horiz-adv-x="956" d="M41 0l332 475l-328 492h217l223 -330l230 330h198l-331 -475l333 -492h-225l-221 330l-229 -330h-199z" />
<glyph unicode="y" horiz-adv-x="1044" d="M31 967h198l306 -721l296 721h183l-578 -1366h-182l176 413z" />
<glyph unicode="z" horiz-adv-x="956" d="M82 0v82l510 721h-494v164h776v-82l-509 -721h495v-164h-778z" />
<glyph unicode="{" horiz-adv-x="681" d="M102 514v119q18 2 31.5 4.5t34 10.5t35.5 19t32 31t27.5 46.5t17.5 66t7 88.5v234q0 211 84 298t270 87v-144q-56 0 -86.5 -5.5t-56.5 -25t-35.5 -59t-9.5 -106.5v-197q0 -85 -8 -142.5t-31.5 -110.5t-68 -90t-114.5 -65q70 -28 114.5 -65t68 -89.5t31.5 -110t8 -142.5 v-197q0 -67 9.5 -106.5t35.5 -59t56.5 -25t86.5 -5.5v-144q-186 0 -270 87t-84 298v234q0 49 -7 88.5t-17.5 66t-27.5 46.5t-32 31t-35.5 19t-34 10.5t-31.5 4.5z" />
<glyph unicode="|" horiz-adv-x="348" d="M102 -399v1915h144v-1915h-144z" />
<glyph unicode="}" horiz-adv-x="681" d="M41 -227q56 0 86.5 5.5t56.5 25t35.5 59t9.5 106.5v197q0 85 8 142.5t31.5 110t68 89.5t114.5 65q-70 28 -114.5 65t-68 90t-31.5 110.5t-8 142.5v197q0 67 -9.5 106.5t-35.5 59t-56.5 25t-86.5 5.5v144q186 0 270 -87t84 -298v-234q0 -49 7 -88.5t17.5 -66t27.5 -46.5 t32 -31t35.5 -19t34 -10.5t31.5 -4.5v-119q-18 -2 -31.5 -4.5t-34 -10.5t-35.5 -19t-32 -31t-27.5 -46.5t-17.5 -66t-7 -88.5v-234q0 -211 -84 -298t-270 -87v144z" />
<glyph unicode="~" horiz-adv-x="1333" d="M92 463v139q116 85 188 117.5t160 32.5q54 0 116.5 -22.5t111 -49.5t111 -49.5t116.5 -22.5q85 0 147.5 26.5t198.5 119.5v-140q-141 -93 -202 -121t-146 -28q-54 0 -117 22.5t-111.5 49t-111 49t-115.5 22.5q-86 0 -148 -26t-198 -119z" />
<glyph unicode="&#xa2;" horiz-adv-x="1003" d="M82 483q0 103 29 189t77.5 145t112.5 100.5t133 61t141 20.5l21 142h137l-22 -150q68 -8 200 -39l-43 -157q-123 30 -180 36l-102 -692h14q41 0 93.5 20.5t85 39.5t91.5 57l82 -135q-217 -152 -391 -152l-20 -141h-138l23 158q-74 17 -134.5 54.5t-108.5 96.5 t-74.5 147.5t-26.5 198.5zM281 483q0 -248 172 -319l98 672q-270 -25 -270 -353z" />
<glyph unicode="&#xa3;" horiz-adv-x="1087" d="M102 0l113 582h-109v163h140l51 261q21 109 50.5 186.5t78 142t124 97t177.5 32.5q123 0 320 -32l-39 -183q-239 43 -336 43q-60 0 -106 -68t-83 -253l-45 -226h375v-163h-407l-80 -394q126 60 276 60q58 0 146 -15l294 -47l-36 -211l-420 68q-86 12 -135 12 q-128 0 -226 -55h-123z" />
<glyph unicode="&#xa5;" horiz-adv-x="1224" d="M31 1434h227l363 -697l366 697h207l-373 -709h344v-143h-420l-32 -64v-100h452v-144h-452v-274h-203v274h-451v144h451v104l-31 60h-420v143h344z" />
<glyph unicode="&#xa8;" horiz-adv-x="1007" d="M240 1268q0 50 35 86.5t81 36.5q52 0 87.5 -36t35.5 -87q0 -48 -35.5 -82.5t-87.5 -34.5q-46 0 -81 35t-35 82zM637 1268q0 51 35.5 87t83.5 36q51 0 86 -36t35 -87q0 -48 -35 -82.5t-86 -34.5q-47 0 -83 35t-36 82z" />
<glyph unicode="&#xa9;" horiz-adv-x="1685" d="M102 719q0 202 99.5 372.5t270 269.5t372.5 99q150 0 287 -58.5t236 -157.5t157.5 -236.5t58.5 -288.5q0 -150 -58.5 -287t-157.5 -236t-236 -157.5t-287 -58.5q-151 0 -288.5 58.5t-237 157.5t-158 236t-58.5 287zM201 719q0 -173 86.5 -321t234.5 -234t322 -86 q130 0 248.5 51t204.5 137t137 204.5t51 248.5q0 174 -86 322t-234 234.5t-321 86.5q-174 0 -322 -86.5t-234.5 -234.5t-86.5 -322zM412 719q0 135 48.5 238t151 165t246.5 62q145 0 270 -56l-45 -110q-51 20 -75.5 28t-64.5 15.5t-85 7.5q-136 0 -221.5 -95t-85.5 -255 q0 -167 84.5 -257.5t222.5 -90.5q110 0 262 102l56 -98q-6 -5 -17.5 -13t-46.5 -28.5t-70.5 -36t-86.5 -28.5t-97 -13q-217 0 -331.5 125.5t-114.5 337.5z" />
<glyph unicode="&#xab;" horiz-adv-x="851" d="M102 471l441 473l90 -80l-307 -393l307 -393l-90 -80zM469 471l287 307l75 -73l-188 -234l188 -233l-75 -74z" />
<glyph unicode="&#xad;" horiz-adv-x="593" d="M61 449v143h471v-143h-471z" />
<glyph unicode="&#xae;" horiz-adv-x="978" d="M82 1065q0 169 119 288.5t288 119.5t288.5 -119.5t119.5 -288.5t-119.5 -288.5t-288.5 -119.5t-288 119.5t-119 288.5zM150 1065q0 -143 98.5 -241.5t240.5 -98.5q143 0 241.5 98.5t98.5 241.5t-98.5 241.5t-241.5 98.5q-142 0 -240.5 -98.5t-98.5 -241.5zM360 819v506 h142q73 0 125.5 -40.5t52.5 -115.5q0 -104 -100 -139l131 -211h-88l-123 199h-64v-199h-76zM436 1083h53q109 0 109 86q0 91 -109 91h-53v-177z" />
<glyph unicode="&#xb4;" horiz-adv-x="808" d="M328 1114l200 332h201l-268 -332h-133z" />
<glyph unicode="&#xb8;" horiz-adv-x="481" d="M82 -334q33 -8 92 -8q51 0 76.5 19.5t25.5 46.5q0 59 -92 69l-59 6l74 201h145l-57 -135q60 -9 99.5 -44t39.5 -85q0 -71 -62.5 -117.5t-164.5 -46.5q-68 0 -117 12v82z" />
<glyph unicode="&#xbb;" horiz-adv-x="851" d="M20 238l189 233l-189 234l76 73l287 -307l-287 -307zM219 78l307 393l-307 393l90 80l441 -473l-441 -473z" />
<glyph unicode="&#x2c6;" horiz-adv-x="888" d="M102 1114l242 332h201l241 -332h-133l-209 207l-208 -207h-134z" />
<glyph unicode="&#x2da;" horiz-adv-x="534" d="M102 1274q0 69 48.5 116.5t117.5 47.5t116.5 -47.5t47.5 -116.5t-47.5 -117.5t-116.5 -48.5t-117.5 48.5t-48.5 117.5zM186 1274q0 -32 23 -55t57 -23q32 0 54 23t22 55q0 34 -22 56t-54 22q-34 0 -57 -22t-23 -56z" />
<glyph unicode="&#x2dc;" horiz-adv-x="892" d="M102 1270q42 67 92.5 102t124.5 35q43 0 80.5 -16t60 -35t53 -35t62.5 -16q55 0 92 27.5t83 97.5l41 -132q-41 -67 -92.5 -102t-125.5 -35q-43 0 -80.5 16t-60 35.5t-53 35.5t-62.5 16q-55 0 -91.5 -27.5t-82.5 -97.5z" />
<glyph unicode="&#x401;" horiz-adv-x="1021" d="M184 0v1434h734v-185h-529v-415h479v-185h-479v-465h551v-184h-756zM233 1735q0 50 35.5 86.5t81.5 36.5q52 0 87.5 -36t35.5 -87q0 -48 -35.5 -82.5t-87.5 -34.5q-46 0 -81.5 35t-35.5 82zM631 1735q0 51 35.5 87t83.5 36q51 0 85.5 -36t34.5 -87q0 -48 -35 -82.5 t-85 -34.5q-47 0 -83 35t-36 82z" />
<glyph unicode="&#x402;" horiz-adv-x="1480" d="M31 1249v185h1198v-185h-498v-438q5 5 15 12t42 26.5t64.5 34t80.5 26.5t93 12q69 0 132 -23.5t115.5 -70.5t84 -126.5t31.5 -181.5v-416q0 -241 -125 -371t-381 -130v184q39 0 63 1t59.5 7.5t57.5 18.5t47.5 35.5t40 56.5t24 83.5t9.5 114.5v396q0 62 -20 108t-54.5 71 t-73 36.5t-82.5 11.5q-96 0 -223 -96v-631h-203v1249h-497z" />
<glyph unicode="&#x403;" horiz-adv-x="950" d="M184 0v1434h736v-185h-531v-1249h-205zM377 1581l201 332h200l-268 -332h-133z" />
<glyph unicode="&#x404;" horiz-adv-x="1343" d="M82 717q0 161 46 296t134 236t226 158t313 57q259 0 456 -88l-71 -178q-112 42 -196 62t-189 20q-191 0 -323.5 -119t-162.5 -327h701v-185h-707q18 -239 152 -367t340 -128q105 0 208 44.5t216 120.5l88 -157q-10 -8 -28 -21t-74 -46t-113.5 -58.5t-139 -46.5 t-157.5 -21q-176 0 -313 54.5t-225.5 153.5t-134.5 235.5t-46 304.5z" />
<glyph unicode="&#x405;" horiz-adv-x="1105" d="M61 145l99 158q72 -53 182.5 -101t208.5 -48q122 0 201 58.5t79 164.5q0 63 -39 112.5t-101 83.5t-137 65t-150 67.5t-137 81t-101 114.5t-39 160q0 85 28.5 156t87 127.5t157 88t229.5 31.5q90 0 193.5 -26.5t174.5 -63.5l-79 -168q-60 27 -155.5 50.5t-178.5 23.5 q-69 0 -123 -17.5t-90.5 -62.5t-36.5 -113q0 -42 24.5 -77.5t65.5 -62t94 -51t112 -49.5t118 -52.5t112 -64t94 -80.5t65.5 -106.5t24.5 -137.5q0 -87 -36 -166t-101 -139.5t-165.5 -96t-221.5 -35.5q-120 0 -243 55t-216 121z" />
<glyph unicode="&#x406;" horiz-adv-x="552" d="M184 0v1434h205v-1434h-205z" />
<glyph unicode="&#x407;" horiz-adv-x="573" d="M72 1735q0 45 28 79.5t64 34.5q41 0 69.5 -34t28.5 -80t-28.5 -77.5t-69.5 -31.5q-36 0 -64 32t-28 77zM184 0v1434h205v-1434h-205zM313 1735q0 46 28 80t65 34q41 0 68.5 -33.5t27.5 -80.5q0 -46 -27.5 -77.5t-68.5 -31.5q-37 0 -65 32t-28 77z" />
<glyph unicode="&#x408;" horiz-adv-x="552" d="M-113 -213q51 0 87.5 4.5t79 23.5t68.5 51.5t44 93t18 144.5v1330h205v-1330q0 -250 -121.5 -375.5t-380.5 -125.5v184z" />
<glyph unicode="&#x409;" horiz-adv-x="1853" d="M31 133q47 9 86 33.5t69.5 58t55 89t42.5 113t31.5 145.5t23 170t17 203t12 228t9.5 261h790v-562h158q93 0 176.5 -26.5t151.5 -78t108.5 -137t40.5 -194.5t-40.5 -194.5t-108.5 -137t-151.5 -78t-176.5 -26.5h-362v1249h-402q-8 -229 -21 -398t-37 -312t-58 -240 t-84.5 -169.5t-116.5 -113t-154 -59.5zM1167 184h121q147 0 222 64t75 188t-75 188t-222 64h-121v-504z" />
<glyph unicode="&#x40a;" horiz-adv-x="1935" d="M184 0v1434h205v-590h655v590h205v-586h158q93 0 176 -24.5t152 -74t109 -133t40 -192.5t-40 -192.5t-109 -133t-152 -74t-176 -24.5h-363v659h-655v-659h-205zM1249 184h121q146 0 221.5 61t75.5 179q0 240 -297 240h-121v-480z" />
<glyph unicode="&#x40b;" horiz-adv-x="1480" d="M31 1249v185h1198v-185h-498v-438q5 5 15 12t42 26.5t64.5 34t80.5 26.5t93 12q69 0 132 -23.5t115.5 -70.5t84 -126.5t31.5 -181.5v-520h-205v500q0 62 -20 108t-54.5 71t-73 36.5t-82.5 11.5q-96 0 -223 -96v-631h-203v1249h-497z" />
<glyph unicode="&#x40c;" horiz-adv-x="1275" d="M184 0v1434h205v-600h146l423 600h246l-485 -684l498 -750h-259l-411 649h-158v-649h-205zM539 1581l200 332h201l-268 -332h-133z" />
<glyph unicode="&#x40e;" horiz-adv-x="1277" d="M31 1434h223l430 -830l375 830h198l-647 -1434h-198l166 369zM145 1675l66 156q236 -105 418 -105t418 105l65 -156q-264 -104 -483 -104q-220 0 -484 104z" />
<glyph unicode="&#x40f;" horiz-adv-x="1495" d="M184 0v1434h205v-1250h717v1250h205v-1434h-451l-31 -362h-163l-31 362h-451z" />
<glyph unicode="&#x410;" horiz-adv-x="1296" d="M31 0l493 1434h248l494 -1434h-215l-133 385h-558l-133 -385h-196zM424 569h430l-213 625z" />
<glyph unicode="&#x411;" horiz-adv-x="1126" d="M184 0v1434h736v-185h-531v-377h178q93 0 176.5 -26.5t151.5 -78t108.5 -137t40.5 -194.5t-40.5 -194.5t-108.5 -137t-151.5 -78t-176.5 -26.5h-383zM389 184h141q147 0 222 64t75 188t-75 188t-222 64h-141v-504z" />
<glyph unicode="&#x412;" horiz-adv-x="1136" d="M184 0v1434h430q56 0 110 -11t106.5 -37t91.5 -65t63.5 -99.5t24.5 -134.5q0 -122 -63 -210.5t-183 -126.5q134 -29 212.5 -117t78.5 -230q0 -83 -27 -152t-71 -114.5t-102 -77t-118.5 -45.5t-122.5 -14h-430zM389 184h186q130 0 202.5 56.5t72.5 175.5t-72.5 176 t-202.5 57h-186v-465zM389 834h170q124 0 184 49.5t60 158.5q0 108 -60 157.5t-184 49.5h-170v-415z" />
<glyph unicode="&#x413;" horiz-adv-x="950" d="M184 0v1434h736v-185h-531v-1249h-205z" />
<glyph unicode="&#x414;" horiz-adv-x="1517" d="M51 184h139q49 86 85 168t62 152t44 160.5t29 157.5t19 182.5t11.5 195.5t8.5 234h823v-1250h164v-546h-164l-41 362h-975l-41 -362h-164v546zM389 184h678v1065h-438q-24 -749 -240 -1065z" />
<glyph unicode="&#x415;" horiz-adv-x="1021" d="M184 0v1434h734v-185h-529v-415h479v-185h-479v-465h551v-184h-756z" />
<glyph unicode="&#x416;" horiz-adv-x="1937" d="M59 0l478 750l-465 684h229l410 -600h155v600h205v-600h158l407 600h230l-465 -684l477 -750h-254l-391 649h-162v-649h-205v649h-161l-392 -649h-254z" />
<glyph unicode="&#x417;" horiz-adv-x="1073" d="M41 162l113 143q93 -78 174.5 -114.5t177.5 -36.5q113 0 191.5 64.5t78.5 176.5q0 126 -77 190t-242 64h-127v185h127q157 0 243 61.5t86 185.5q0 93 -60 146t-159 53q-174 0 -356 -78l-57 176q197 86 411 86q91 0 165.5 -21.5t131.5 -64.5t88 -113.5t31 -164.5 q0 -72 -25.5 -133.5t-68.5 -104.5t-92 -72.5t-105 -48.5q134 -28 217.5 -116.5t83.5 -229.5q0 -102 -38.5 -184t-104.5 -134t-151 -80t-181 -28q-135 0 -261 54.5t-214 138.5z" />
<glyph unicode="&#x418;" horiz-adv-x="1519" d="M184 0v1434h205v-1127l721 1127h225v-1434h-205v1126l-720 -1126h-226z" />
<glyph unicode="&#x419;" horiz-adv-x="1519" d="M184 0v1434h205v-1127l721 1127h225v-1434h-205v1126l-720 -1126h-226zM276 1675l66 156q236 -105 418 -105t418 105l65 -156q-264 -104 -483 -104q-220 0 -484 104z" />
<glyph unicode="&#x41a;" horiz-adv-x="1275" d="M184 0v1434h205v-600h146l423 600h246l-485 -684l498 -750h-259l-411 649h-158v-649h-205z" />
<glyph unicode="&#x41b;" horiz-adv-x="1433" d="M-10 133q76 10 126 32.5t94.5 79t70.5 142.5t46.5 233t31.5 340t18 474h872v-1434h-205v1249h-483q-5 -206 -15.5 -367t-28 -288t-39 -219.5t-54.5 -161t-67.5 -112.5t-85 -73.5t-101 -44.5t-121.5 -26z" />
<glyph unicode="&#x41c;" horiz-adv-x="1871" d="M162 0l78 1434h309l385 -1098l418 1098h295l61 -1434h-207l-47 1208l-444 -1208h-170l-428 1208l-62 -1208h-188z" />
<glyph unicode="&#x41d;" horiz-adv-x="1495" d="M184 0v1434h205v-600h717v600h205v-1434h-205v649h-717v-649h-205z" />
<glyph unicode="&#x41e;" horiz-adv-x="1544" d="M82 717q0 152 46.5 287t132.5 237.5t218 162.5t293 60t293 -60t218 -162.5t132.5 -237.5t46.5 -287q0 -121 -29 -232.5t-87.5 -205t-140 -163t-193 -108.5t-240.5 -39t-240.5 39t-193 108.5t-140 163t-87.5 205t-29 232.5zM287 717q0 -260 135.5 -411.5t349.5 -151.5 t349.5 151.5t135.5 411.5t-135.5 411.5t-349.5 151.5t-349.5 -151.5t-135.5 -411.5z" />
<glyph unicode="&#x41f;" horiz-adv-x="1495" d="M184 0v1434h1127v-1434h-205v1249h-717v-1249h-205z" />
<glyph unicode="&#x420;" horiz-adv-x="1105" d="M184 0v1434h383q93 0 176.5 -26.5t151.5 -78.5t108.5 -137.5t40.5 -194.5t-40.5 -194.5t-108.5 -137t-151.5 -78t-176.5 -26.5h-178v-561h-205zM389 745h141q147 0 222 64t75 188t-75 188t-222 64h-141v-504z" />
<glyph unicode="&#x421;" horiz-adv-x="1353" d="M82 717q0 161 46 296t134 236t226 158t313 57q259 0 456 -88l-71 -178q-112 42 -196 62t-189 20q-218 0 -356 -152.5t-138 -410.5q0 -270 136.5 -416.5t357.5 -146.5q105 0 208 44.5t216 120.5l88 -157q-10 -8 -28 -21t-74 -46t-113.5 -58.5t-139 -46.5t-157.5 -21 q-176 0 -313 54.5t-225.5 153.5t-134.5 235.5t-46 304.5z" />
<glyph unicode="&#x422;" horiz-adv-x="1177" d="M31 1249v185h1116v-185h-457v-1249h-203v1249h-456z" />
<glyph unicode="&#x423;" horiz-adv-x="1277" d="M31 1434h223l430 -830l375 830h198l-647 -1434h-198l166 369z" />
<glyph unicode="&#x424;" horiz-adv-x="1609" d="M82 774q0 281 163.5 424t456.5 143v185h205v-185q293 0 457 -143t164 -424t-164 -424t-457 -143v-207h-205v207q-293 0 -456.5 143t-163.5 424zM287 774q0 -95 20 -163.5t54.5 -110.5t89 -66.5t113.5 -33.5t138 -9v766q-79 0 -138 -9t-113.5 -33.5t-89 -66.5 t-54.5 -110.5t-20 -163.5zM907 391q79 0 138 9t114 33.5t89 66.5t54.5 111t20.5 163t-20.5 163t-54.5 111t-89 66.5t-114 33.5t-138 9v-766z" />
<glyph unicode="&#x425;" horiz-adv-x="1245" d="M51 1434h242l336 -535l336 535h217l-445 -707l457 -727h-244l-336 532l-333 -532h-218l443 707z" />
<glyph unicode="&#x426;" horiz-adv-x="1556" d="M184 0v1434h205v-1250h717v1250h205v-1250h164v-546h-164l-41 362h-1086z" />
<glyph unicode="&#x427;" horiz-adv-x="1259" d="M82 924v510h205v-510q0 -121 58.5 -175.5t174.5 -54.5q67 0 170 23.5t180 60.5v656h205v-1434h-205v598q-197 -86 -391 -86q-87 0 -157.5 23t-125 71t-84.5 129t-30 189z" />
<glyph unicode="&#x428;" horiz-adv-x="2088" d="M184 0v1434h205v-1250h553v1250h205v-1250h553v1250h205v-1434h-1721z" />
<glyph unicode="&#x429;" horiz-adv-x="2150" d="M184 0v1434h205v-1250h553v1250h205v-1250h553v1250h205v-1250h163v-546h-163l-41 362h-1680z" />
<glyph unicode="&#x42a;" horiz-adv-x="1239" d="M0 1249v185h532v-562h179q93 0 176.5 -26.5t151.5 -78t108.5 -137t40.5 -194.5t-40.5 -194.5t-108.5 -137t-151.5 -78t-176.5 -26.5h-383v1249h-328zM532 184h142q147 0 222 64t75 188t-75 188t-222 64h-142v-504z" />
<glyph unicode="&#x42b;" horiz-adv-x="1587" d="M184 0v1434h205v-562h178q93 0 176.5 -26.5t151.5 -78t108.5 -137t40.5 -194.5t-40.5 -194.5t-108.5 -137t-151.5 -78t-176.5 -26.5h-383zM389 184h141q147 0 222 64t75 188t-75 188t-222 64h-141v-504zM1198 0v1434h205v-1434h-205z" />
<glyph unicode="&#x42c;" horiz-adv-x="1095" d="M184 0v1434h205v-562h178q93 0 176.5 -26.5t151.5 -78t108.5 -137t40.5 -194.5t-40.5 -194.5t-108.5 -137t-151.5 -78t-176.5 -26.5h-383zM389 184h141q147 0 222 64t75 188t-75 188t-222 64h-141v-504z" />
<glyph unicode="&#x42d;" horiz-adv-x="1343" d="M31 162l88 157q113 -76 216 -120.5t208 -44.5q206 0 339.5 128t151.5 367h-706v185h700q-31 212 -156.5 329t-328.5 117q-105 0 -189 -20t-196 -62l-72 178q197 88 457 88q182 0 321.5 -56.5t225.5 -158.5t129 -236t43 -296q0 -168 -46 -304.5t-134.5 -235.5 t-225.5 -153.5t-313 -54.5q-76 0 -156.5 20t-141.5 48.5t-111 56.5t-76 48z" />
<glyph unicode="&#x42e;" horiz-adv-x="2066" d="M184 0v1434h205v-600h262q16 133 66 246.5t131.5 199.5t201.5 135t265 49q160 0 289.5 -60t211.5 -163t125.5 -237t43.5 -287t-43.5 -287t-125.5 -237.5t-211.5 -163.5t-289.5 -60q-152 0 -275.5 53t-205.5 146.5t-129.5 215.5t-57.5 265h-258v-649h-205zM850 717 q0 -263 126.5 -413t338.5 -150t338.5 150t126.5 413t-126.5 413t-338.5 150t-338.5 -150t-126.5 -413z" />
<glyph unicode="&#x42f;" horiz-adv-x="1228" d="M61 0l345 600q-120 47 -191.5 147.5t-71.5 249.5q0 109 40.5 194.5t109 137.5t152 78.5t176.5 26.5h423v-1434h-204v561h-219l-324 -561h-236zM360 997q0 -124 75 -188t222 -64h183v504h-183q-147 0 -222 -64t-75 -188z" />
<glyph unicode="&#x430;" horiz-adv-x="1013" d="M72 236q0 78 29 137.5t80 99.5t129.5 67t169 40.5t206.5 19.5q0 39 -3.5 70.5t-9 54.5t-16 41t-19.5 29.5t-25.5 19.5t-27.5 12t-33 6t-34 2.5t-37 0.5q-64 0 -152.5 -22t-160.5 -52l-53 158q76 30 191.5 54.5t215.5 24.5q58 0 106.5 -10.5t94.5 -38.5t77.5 -73 t50.5 -118.5t19 -170.5v-588h-184v143q-176 -166 -338 -166q-123 0 -199.5 66t-76.5 193zM256 250q0 -115 139 -115q59 0 137.5 49.5t153.5 120.5v152q-98 -4 -170.5 -15t-134 -34t-93.5 -62.5t-32 -95.5z" />
<glyph unicode="&#x431;" horiz-adv-x="1155" d="M82 643q0 102 12.5 185.5t29.5 149.5t57 120.5t72 93t99.5 74.5t115 57.5t142.5 48t157.5 41t182.5 41.5l29 -166l-475 -129q-219 -58 -232 -356q169 155 387 155q81 0 155 -30.5t132 -87.5t92.5 -145.5t34.5 -196.5q0 -119 -41 -220t-109 -167.5t-155.5 -104 t-181.5 -37.5q-253 0 -378.5 174t-125.5 500zM272 584q0 -126 21 -214.5t62.5 -140t97.5 -74t133 -22.5q139 0 218 91t79 235q0 153 -74 241t-223 88q-81 0 -168.5 -38.5t-145.5 -102.5v-63z" />
<glyph unicode="&#x432;" horiz-adv-x="958" d="M143 0v967h406q60 0 111.5 -11t98.5 -36.5t74 -75t27 -119.5q0 -185 -194 -221q101 -20 156 -76t55 -164q0 -70 -27.5 -122.5t-75 -82.5t-104 -44.5t-121.5 -14.5h-406zM328 154h219q65 0 105 35t40 100t-39.5 97t-105.5 32h-219v-264zM328 561h198q148 0 148 125 q0 127 -148 127h-198v-252z" />
<glyph unicode="&#x433;" horiz-adv-x="808" d="M143 0v967h635v-164h-450v-803h-185z" />
<glyph unicode="&#x434;" horiz-adv-x="1120" d="M20 164h91q102 113 139.5 284.5t50.5 518.5h643v-803h135v-436h-133l-31 272h-731l-30 -272h-134v436zM293 164h465v639h-293q-23 -263 -58.5 -410.5t-113.5 -228.5z" />
<glyph unicode="&#x435;" horiz-adv-x="1007" d="M82 463q0 128 39 233t103 169.5t142 99t160 34.5q416 0 416 -522h-672q2 -96 25.5 -163t67 -104.5t99.5 -54t132 -16.5q59 0 136 36t140 81l76 -133q-45 -32 -73.5 -50.5t-82 -47t-110.5 -42.5t-117 -14q-95 0 -180 30t-153 88.5t-108 155.5t-40 220zM285 610h479 q-7 111 -58 168.5t-174 57.5q-90 0 -150 -52.5t-97 -173.5z" />
<glyph unicode="&#x436;" horiz-adv-x="1486" d="M31 0l340 510l-322 457h201l270 -385h131v385h185v-385h129l272 385h201l-324 -457l342 -510h-223l-281 418h-116v-418h-185v418h-116l-281 -418h-223z" />
<glyph unicode="&#x437;" horiz-adv-x="890" d="M61 115l84 137q65 -46 145.5 -83.5t147.5 -37.5q92 0 139.5 31.5t47.5 109.5q0 69 -57.5 112.5t-139.5 43.5h-127v143h127q87 0 133.5 42t46.5 102q0 51 -42.5 86t-108.5 35q-165 0 -277 -52l-41 158q169 57 342 57q87 0 155 -23t113.5 -79.5t45.5 -140.5 q0 -91 -61.5 -162.5t-182.5 -89.5q137 -14 197.5 -77.5t60.5 -170.5q0 -91 -55 -158t-138.5 -98t-181.5 -31q-112 0 -198 38.5t-175 107.5z" />
<glyph unicode="&#x438;" horiz-adv-x="1138" d="M143 0v967h185v-711l473 711h194v-967h-184v711l-473 -711h-195z" />
<glyph unicode="&#x439;" horiz-adv-x="1138" d="M143 0v967h185v-711l473 711h194v-967h-184v711l-473 -711h-195zM188 1233l66 145q153 -94 315 -94q163 0 316 94l65 -145q-97 -44 -186.5 -69t-194.5 -25t-194.5 25t-186.5 69z" />
<glyph unicode="&#x43a;" horiz-adv-x="983" d="M143 0v967h185v-385h133l276 385h203l-319 -445l331 -522h-219l-260 418h-145v-418h-185z" />
<glyph unicode="&#x43b;" horiz-adv-x="1075" d="M12 131q47 6 83.5 27.5t63 54t45.5 88t31 116t19.5 151.5t11.5 181t6 218h660v-967h-184v803h-314q-7 -151 -15.5 -253t-25.5 -199.5t-43 -158t-65.5 -110t-95 -76t-130.5 -37.5z" />
<glyph unicode="&#x43c;" horiz-adv-x="1372" d="M123 0l33 967h258l272 -727l275 727h256l32 -967h-180l-27 752l-282 -752h-170l-283 748l-24 -748h-160z" />
<glyph unicode="&#x43d;" horiz-adv-x="1132" d="M143 0v967h185v-385h477v385h184v-967h-184v418h-477v-418h-185z" />
<glyph unicode="&#x43e;" horiz-adv-x="1146" d="M82 485q0 167 66.5 285t175.5 173.5t249 55.5q104 0 192.5 -33t156 -95.5t105.5 -162t38 -225.5t-38 -225t-105.5 -161.5t-156 -95t-192.5 -32.5q-215 0 -353 134t-138 382zM266 485q0 -171 83 -266.5t224 -95.5q142 0 225 94.5t83 265.5t-83.5 267t-224.5 96t-224 -95 t-83 -266z" />
<glyph unicode="&#x43f;" horiz-adv-x="1132" d="M143 0v967h846v-967h-184v803h-477v-803h-185z" />
<glyph unicode="&#x440;" horiz-adv-x="1144" d="M143 -399v1366h185v-125q42 52 134 104.5t193 52.5q60 0 117 -17t110 -55.5t93 -95t64 -141.5t24 -188q0 -108 -28 -198.5t-73.5 -151t-104.5 -103t-120.5 -61.5t-122.5 -19q-70 0 -150.5 19.5t-135.5 52.5v-440h-185zM328 201q39 -39 106 -59.5t131 -20.5q25 0 46.5 2 t54.5 10.5t59.5 23.5t55.5 43.5t48.5 67.5t32 99t12.5 135q0 84 -21.5 146t-52.5 95.5t-74 53.5t-76.5 25t-69.5 5q-127 0 -252 -129v-497z" />
<glyph unicode="&#x441;" horiz-adv-x="1003" d="M82 483q0 104 29.5 191t79 146t115 100t135 60t141.5 19q149 0 329 -47l-43 -157q-159 43 -266 43q-321 0 -321 -355q0 -173 83.5 -258.5t235.5 -85.5q41 0 93.5 20.5t85 39.5t91.5 57l82 -135q-217 -152 -389 -152q-77 0 -145.5 17.5t-130.5 56.5t-107 97.5t-71.5 146 t-26.5 196.5z" />
<glyph unicode="&#x442;" horiz-adv-x="923" d="M31 803v164h862v-164h-338v-803h-186v803h-338z" />
<glyph unicode="&#x443;" horiz-adv-x="1044" d="M31 967h198l301 -717l301 717h183l-578 -1366h-182l176 413z" />
<glyph unicode="&#x444;" horiz-adv-x="1396" d="M82 492q0 229 136 359t388 130v332h185v-332q251 0 387.5 -130.5t136.5 -358.5q0 -230 -137.5 -367t-386.5 -137v-387h-185v387q-250 0 -387 136.5t-137 367.5zM266 492q0 -179 79 -270t261 -91v707q-184 0 -262 -84t-78 -262zM791 131q182 0 260.5 90.5t78.5 270.5 q0 178 -77.5 262t-261.5 84v-707z" />
<glyph unicode="&#x445;" horiz-adv-x="956" d="M41 0l332 475l-328 492h217l223 -330l230 330h198l-331 -475l333 -492h-225l-221 330l-229 -330h-199z" />
<glyph unicode="&#x446;" horiz-adv-x="1165" d="M143 0v967h185v-803h477v803h184v-803h135v-436h-133l-30 272h-818z" />
<glyph unicode="&#x447;" horiz-adv-x="974" d="M51 633v334h185v-312q0 -88 37.5 -131t125.5 -43q107 0 248 60v426h184v-967h-184v401q-62 -30 -149 -52.5t-168 -22.5q-132 0 -205.5 84t-73.5 223z" />
<glyph unicode="&#x448;" horiz-adv-x="1536" d="M143 0v967h185v-803h348v803h184v-803h348v803h185v-967h-1250z" />
<glyph unicode="&#x449;" horiz-adv-x="1568" d="M143 0v967h185v-803h348v803h184v-803h348v803h185v-803h135v-436h-133l-31 272h-1221z" />
<glyph unicode="&#x44a;" horiz-adv-x="1013" d="M0 803v164h432v-346h201q143 0 236.5 -83t93.5 -227t-93.5 -227.5t-236.5 -83.5h-387v803h-246zM432 154h176q85 0 127.5 37t42.5 120q0 79 -49 117.5t-121 38.5h-176v-313z" />
<glyph unicode="&#x44b;" horiz-adv-x="1306" d="M143 0v967h185v-346h200q143 0 236.5 -83t93.5 -227t-93.5 -227.5t-236.5 -83.5h-385zM328 154h176q85 0 127.5 37t42.5 120q0 79 -49 117.5t-121 38.5h-176v-313zM977 0v967h186v-967h-186z" />
<glyph unicode="&#x44c;" horiz-adv-x="909" d="M143 0v967h185v-346h200q143 0 236.5 -83t93.5 -227t-93.5 -227.5t-236.5 -83.5h-385zM328 154h176q85 0 127.5 37t42.5 120q0 79 -49 117.5t-121 38.5h-176v-313z" />
<glyph unicode="&#x44d;" horiz-adv-x="1005" d="M51 115l84 139q63 -45 137.5 -80t133.5 -35q135 0 216.5 69.5t98.5 209.5h-496v164h494q-15 134 -84 194t-201 60q-153 0 -297 -39l-41 157q172 45 359 45q98 0 181 -31t148.5 -92t102.5 -162t37 -231q0 -108 -31 -196t-81.5 -146.5t-119 -98t-141.5 -56.5t-150 -17 q-88 0 -187 46t-163 100z" />
<glyph unicode="&#x44e;" horiz-adv-x="1548" d="M143 0v967h185v-385h215q25 191 145 304t313 113q218 0 341.5 -141.5t123.5 -372.5q0 -233 -123.5 -374.5t-341.5 -141.5q-200 0 -321.5 122t-140.5 327h-211v-418h-185zM721 485q0 -182 74 -267t206 -85t206.5 85t74.5 267q0 181 -75 266t-206 85t-205.5 -85t-74.5 -266 z" />
<glyph unicode="&#x44f;" horiz-adv-x="968" d="M51 0l281 379q-201 58 -201 280q0 85 31 147.5t83.5 96t111.5 49t126 15.5h342v-967h-184v352h-111l-260 -352h-219zM317 659q0 -69 44.5 -111t125.5 -42h154v307h-154q-170 0 -170 -154z" />
<glyph unicode="&#x451;" horiz-adv-x="1007" d="M82 463q0 128 39 233t103 169.5t142 99t160 34.5q416 0 416 -522h-672q2 -96 25.5 -163t67 -104.5t99.5 -54t132 -16.5q59 0 136 36t140 81l76 -133q-45 -32 -73.5 -50.5t-82 -47t-110.5 -42.5t-117 -14q-95 0 -180 30t-153 88.5t-108 155.5t-40 220zM240 1268 q0 50 35 86.5t81 36.5q52 0 87.5 -36t35.5 -87q0 -48 -35.5 -82.5t-87.5 -34.5q-46 0 -81 35t-35 82zM285 610h479q-7 111 -58 168.5t-174 57.5q-90 0 -150 -52.5t-97 -173.5zM637 1268q0 51 35.5 87t83.5 36q51 0 86 -36t35 -87q0 -48 -35 -82.5t-86 -34.5q-47 0 -83 35 t-36 82z" />
<glyph unicode="&#x452;" horiz-adv-x="1132" d="M0 1106v143h123v185h184v-185h293v-143h-293v-258q151 147 320 147q75 0 142 -25.5t121.5 -76.5t87 -136.5t32.5 -195.5v-530q0 -97 -25.5 -173.5t-66.5 -123.5t-96.5 -78t-111 -43t-114.5 -12v163q61 0 106 22t71 60t38 84t12 101v530q0 142 -64.5 205t-168.5 63 q-67 0 -153.5 -38.5t-129.5 -90.5v-700h-184v1106h-123z" />
<glyph unicode="&#x453;" horiz-adv-x="808" d="M143 0v967h635v-164h-450v-803h-185zM328 1114l200 332h201l-268 -332h-133z" />
<glyph unicode="&#x454;" horiz-adv-x="993" d="M82 483q0 104 29.5 191t79 146t115 100t135 60t141.5 19q149 0 329 -47l-43 -159q-167 45 -266 45q-274 0 -315 -256h493v-164h-495q15 -140 96.5 -209.5t218.5 -69.5q90 0 266 125l86 -143q-217 -152 -389 -152q-77 0 -145.5 17.5t-130.5 56.5t-107 97.5t-71.5 146 t-26.5 196.5z" />
<glyph unicode="&#x455;" horiz-adv-x="913" d="M82 104l78 144q168 -115 301 -115q99 0 144.5 31t45.5 94q0 45 -29 76.5t-75 50t-101.5 34.5t-111 37.5t-101.5 51t-75 83t-29 126.5q0 128 90.5 206t249.5 78q97 0 172 -15.5t166 -51.5l-57 -154q-163 62 -310 62q-65 0 -100 -34.5t-35 -82.5q0 -41 29 -69.5t75.5 -46 t102.5 -33t112 -36.5t102.5 -49.5t75.5 -79.5t29 -120q0 -78 -27 -138t-67.5 -94t-93.5 -55t-97.5 -28t-88.5 -7q-198 0 -375 135z" />
<glyph unicode="&#x456;" horiz-adv-x="497" d="M115 1268q0 51 35 87t83 36q51 0 86 -36t35 -87q0 -48 -35 -82.5t-86 -34.5q-47 0 -82.5 35t-35.5 82zM143 0v967h185v-967h-185z" />
<glyph unicode="&#x457;" horiz-adv-x="471" d="M20 1262q0 45 28.5 79.5t64.5 34.5q41 0 69.5 -34t28.5 -80t-28.5 -77.5t-69.5 -31.5q-36 0 -64.5 32t-28.5 77zM143 0v967h185v-967h-185zM262 1262q0 46 27.5 80t64.5 34q41 0 69 -34t28 -80t-28 -77.5t-69 -31.5q-37 0 -64.5 32t-27.5 77z" />
<glyph unicode="&#x458;" horiz-adv-x="471" d="M-84 -236q61 0 106 22t71 60t38 84t12 101v936h185v-936q0 -97 -25.5 -173.5t-66 -123.5t-95.5 -78t-110.5 -43t-114.5 -12v163zM115 1268q0 51 35 87t83 36q51 0 86 -36t35 -87q0 -48 -35 -82.5t-86 -34.5q-47 0 -82.5 35t-35.5 82z" />
<glyph unicode="&#x459;" horiz-adv-x="1490" d="M31 131q47 6 83.5 27.5t63 54t45.5 88t31 116t19.5 151.5t11.5 181t6 218h639v-346h180q143 0 236.5 -83t93.5 -227t-93.5 -227.5t-236.5 -83.5h-365v803h-292q-7 -151 -15.5 -253t-25.5 -199.5t-43 -158t-65.5 -110t-95 -76t-130.5 -37.5zM930 154h155q85 0 127.5 37 t42.5 120q0 79 -49 117.5t-121 38.5h-155v-313z" />
<glyph unicode="&#x45a;" horiz-adv-x="1509" d="M143 0v967h185v-367h436v367h184v-367h180q144 0 237 -78t93 -221q0 -136 -94 -218.5t-236 -82.5h-364v446h-436v-446h-185zM948 154h156q170 0 170 147q0 75 -42 110t-128 35h-156v-292z" />
<glyph unicode="&#x45b;" horiz-adv-x="1275" d="M143 1106v143h123v185h185v-185h292v-143h-292v-258q151 147 319 147q75 0 142 -25.5t121.5 -76.5t87 -136.5t32.5 -195.5v-561h-186v561q0 142 -65 205t-169 63q-67 0 -153 -38t-129 -91v-700h-185v1106h-123z" />
<glyph unicode="&#x45c;" horiz-adv-x="983" d="M143 0v967h185v-385h133l276 385h203l-319 -445l331 -522h-219l-260 418h-145v-418h-185zM430 1114l201 332h200l-268 -332h-133z" />
<glyph unicode="&#x45e;" horiz-adv-x="1044" d="M31 967h198l301 -717l301 717h183l-578 -1366h-182l176 413zM143 1233l66 145q153 -94 315 -94q163 0 316 94l65 -145q-97 -44 -186.5 -69t-194.5 -25t-194.5 25t-186.5 69z" />
<glyph unicode="&#x45f;" horiz-adv-x="1132" d="M143 0v967h185v-803h477v803h184v-967h-330l-32 -272h-123l-33 272h-328z" />
<glyph unicode="&#x490;" horiz-adv-x="950" d="M184 0v1434h551l62 249h123v-434h-531v-1249h-205z" />
<glyph unicode="&#x491;" horiz-adv-x="808" d="M143 0v967h492l31 196h112v-360h-450v-803h-185z" />
<glyph unicode="&#x2000;" horiz-adv-x="956" />
<glyph unicode="&#x2001;" horiz-adv-x="1913" />
<glyph unicode="&#x2002;" horiz-adv-x="956" />
<glyph unicode="&#x2003;" horiz-adv-x="1913" />
<glyph unicode="&#x2004;" horiz-adv-x="637" />
<glyph unicode="&#x2005;" horiz-adv-x="478" />
<glyph unicode="&#x2006;" horiz-adv-x="318" />
<glyph unicode="&#x2007;" horiz-adv-x="318" />
<glyph unicode="&#x2008;" horiz-adv-x="239" />
<glyph unicode="&#x2009;" horiz-adv-x="382" />
<glyph unicode="&#x200a;" horiz-adv-x="106" />
<glyph unicode="&#x2010;" horiz-adv-x="593" d="M61 449v143h471v-143h-471z" />
<glyph unicode="&#x2011;" horiz-adv-x="593" d="M61 449v143h471v-143h-471z" />
<glyph unicode="&#x2012;" horiz-adv-x="593" d="M61 449v143h471v-143h-471z" />
<glyph unicode="&#x2013;" horiz-adv-x="1105" d="M61 457v143h983v-143h-983z" />
<glyph unicode="&#x2014;" horiz-adv-x="1605" d="M61 457v143h1483v-143h-1483z" />
<glyph unicode="&#x2018;" horiz-adv-x="507" d="M102 1030q0 119 224 406l80 -45l-146 -271q50 -5 84.5 -41t34.5 -86q0 -51 -38.5 -90t-90.5 -39q-63 0 -105.5 44.5t-42.5 121.5z" />
<glyph unicode="&#x2019;" horiz-adv-x="507" d="M102 907l146 271q-50 5 -84.5 41t-34.5 86q0 51 38.5 90t90.5 39q63 0 105.5 -44.5t42.5 -121.5q0 -119 -224 -406z" />
<glyph unicode="&#x201a;" horiz-adv-x="466" d="M82 -281l145 271q-50 5 -84 41t-34 86q0 51 38.5 90t90.5 39q63 0 105 -44.5t42 -121.5q0 -120 -223 -406z" />
<glyph unicode="&#x201c;" horiz-adv-x="835" d="M102 1030q0 119 224 406l80 -45l-146 -271q50 -5 84.5 -41t34.5 -86q0 -51 -38.5 -90t-90.5 -39q-63 0 -105.5 44.5t-42.5 121.5zM430 1030q0 120 223 406l80 -45l-145 -271q50 -5 84.5 -41t34.5 -86q0 -51 -38.5 -90t-90.5 -39q-63 0 -105.5 44.5t-42.5 121.5z" />
<glyph unicode="&#x201d;" horiz-adv-x="835" d="M102 907l146 271q-50 5 -84.5 41t-34.5 86q0 51 38.5 90t90.5 39q63 0 105.5 -44.5t42.5 -121.5q0 -119 -224 -406zM430 907l145 271q-50 5 -84 41t-34 86q0 51 38.5 90t90.5 39q63 0 105 -44.5t42 -121.5q0 -120 -223 -406z" />
<glyph unicode="&#x201e;" horiz-adv-x="835" d="M102 -281l146 271q-50 5 -84.5 41t-34.5 86q0 51 38.5 90t90.5 39q63 0 105.5 -44.5t42.5 -121.5q0 -119 -224 -406zM430 -281l145 271q-50 5 -84 41t-34 86q0 51 38.5 90t90.5 39q63 0 105 -44.5t42 -121.5q0 -120 -223 -406z" />
<glyph unicode="&#x2026;" horiz-adv-x="1484" d="M102 117q0 53 38 91t91 38q52 0 89.5 -38t37.5 -91t-37 -90t-90 -37t-91 37.5t-38 89.5zM614 117q0 53 38 91t91 38q52 0 89.5 -38t37.5 -91t-37 -90t-90 -37t-91 37.5t-38 89.5zM1126 117q0 53 38 91t91 38q52 0 89.5 -38t37.5 -91t-37 -90t-90 -37t-91 37.5t-38 89.5z " />
<glyph unicode="&#x202f;" horiz-adv-x="382" />
<glyph unicode="&#x2039;" horiz-adv-x="653" d="M102 471l441 473l90 -80l-307 -393l307 -393l-90 -80z" />
<glyph unicode="&#x203a;" horiz-adv-x="653" d="M20 78l308 393l-308 393l91 80l440 -473l-440 -473z" />
<glyph unicode="&#x205f;" horiz-adv-x="478" />
<glyph unicode="&#x20ac;" horiz-adv-x="1415" d="M61 494v163h84q-2 18 -2 60q0 40 2 63h-84v164h107q58 239 235.5 379.5t458.5 140.5q239 0 436 -88l-71 -178q-83 32 -122.5 45t-105 25t-137.5 12q-163 0 -285 -88.5t-176 -247.5h748l-55 -164h-723q-2 -20 -2 -63q0 -42 2 -60h688l-55 -163h-605q50 -166 172 -253 t291 -87q105 0 208 44.5t216 120.5l88 -157q-10 -8 -28 -21t-74 -46t-113.5 -58.5t-139 -46.5t-157.5 -21q-287 0 -463.5 139t-232.5 386h-105z" />
<glyph unicode="&#x2122;" horiz-adv-x="1771" d="M51 1305v129h678v-129h-266v-629h-146v629h-266zM795 676l24 758h203l215 -572l215 572h201l26 -758h-141l-20 590l-224 -590h-133l-221 586l-20 -586h-125z" />
<glyph unicode="&#x25fc;" horiz-adv-x="962" d="M0 0v963h963v-963h-963z" />
</font>
</defs>
</svg>
